<?xml version="1.0" encoding="UTF-8" standalone="no"?><!DOCTYPE svg PUBLIC "-//W3C//DTD SVG 1.1//EN" "http://www.w3.org/Graphics/SVG/1.1/DTD/svg11.dtd"><svg width="100%" height="100%" viewBox="0 0 4267 4267" version="1.1" xmlns="http://www.w3.org/2000/svg" xmlns:xlink="http://www.w3.org/1999/xlink" xml:space="preserve" xmlns:serif="http://www.serif.com/" style="fill-rule:evenodd;clip-rule:evenodd;stroke-linejoin:round;stroke-miterlimit:2;"><rect id="masked" x="0" y="0" width="4266.67" height="4266.67" style="fill:none;"/><g id="base"></g><g id="src"><path d="M3099.01,2876.31l142.659,-1865.88c-0,-10.687 -0.634,-20.82 -1.663,-29.529c0.238,-2.612 1.663,-5.937 1.663,-8.708c-0,-142.817 -496.296,-258.638 -1108.33,-258.638c-612.116,0 -1108.33,115.742 -1108.33,258.638c-0,2.771 1.346,5.383 1.742,8.075c-1.109,8.708 -1.742,18.208 -1.742,28.896l142.658,1867.15c-277.4,72.041 -459.325,173.454 -459.325,286.187c0,218.658 681.704,395.833 1425,395.833c743.296,0 1425,-177.175 1425,-395.833c0,-112.733 -181.925,-214.146 -459.325,-286.188Z" style="fill:url(#_Linear1);fill-rule:nonzero;"/><path d="M2096.6,1230.44c-387.125,-0.001 -680.992,-70.934 -859.117,-130.309c-41.483,-13.854 -63.966,-58.662 -50.112,-100.146c13.854,-41.483 58.504,-63.966 100.146,-50.112c228.712,76.237 851.991,228.871 1695.83,-1.267c41.879,-11.242 85.658,13.3 97.137,55.575c11.559,42.196 -13.379,85.738 -55.575,97.217c-348.808,95.158 -660.804,129.041 -928.308,129.041Z" style="fill:#66757f;fill-opacity:0.1;fill-rule:nonzero;"/><path d="M3099.01,2876.31l35.309,-461.463c-609.98,170.763 -1392.15,174.721 -2004.18,-29.846l31.113,407.075c5.462,24.067 8.946,51.459 8.946,85.184c-0,138.541 102.045,223.883 219.37,268.85c352.925,135.216 1105.01,130.308 1488.89,11.795c116.137,-35.862 219.767,-137.195 219.767,-252.62c-0,-9.421 1.187,-19.08 1.9,-28.58l-1.109,-0.395Z" style="fill:url(#_Linear2);fill-rule:nonzero;"/><g id="gradient.svg"></g></g><defs><linearGradient id="_Linear1" x1="0" y1="0" x2="1" y2="0" gradientUnits="userSpaceOnUse" gradientTransform="matrix(2850,0,0,2844.78,708.333,2135.95)"><stop offset="0" style="stop-color:#141e30;stop-opacity:1"/><stop offset="1" style="stop-color:#243b55;stop-opacity:1"/></linearGradient><linearGradient id="_Linear2" x1="0" y1="0" x2="1" y2="0" gradientUnits="userSpaceOnUse" gradientTransform="matrix(3008.33,-1187.5,510.846,1294.14,945.833,3320.83)"><stop offset="0" style="stop-color:#8a2387;stop-opacity:1"/><stop offset="0.5" style="stop-color:#e94057;stop-opacity:1"/><stop offset="1" style="stop-color:#f27121;stop-opacity:1"/></linearGradient></defs></svg>